<?xml version="1.0" encoding="UTF-8"?>
<svg id="Layer_1" data-name="Layer 1" xmlns="http://www.w3.org/2000/svg" viewBox="0 0 1550.64 401.88">
  <defs>
    <style>
      .cls-1 {
        fill: #221f1f;
      }

      .cls-2 {
        fill: #231f20;
      }

      .cls-3 {
        fill: #ef5a28;
        fill-rule: evenodd;
      }
    </style>
  </defs>
  <g>
    <g>
      <path class="cls-1" d="M12.74,135.35c8.49-16.47,20.09-29.15,34.79-38.02,14.7-8.87,31.05-13.31,49.05-13.31,13.69,0,26.74,2.98,39.16,8.93,12.42,5.96,22.3,13.88,29.66,23.76V16.73h53.99v281.36h-53.99v-31.18c-6.59,10.4-15.84,18.76-27.76,25.1-11.92,6.33-25.73,9.51-41.44,9.51-17.74,0-33.97-4.56-48.67-13.69-14.7-9.12-26.3-21.99-34.79-38.59C4.24,232.63,0,213.55,0,192s4.24-40.17,12.74-56.65ZM158.17,159.5c-5.07-9.25-11.92-16.35-20.53-21.29-8.62-4.94-17.87-7.41-27.76-7.41s-19.01,2.41-27.37,7.22c-8.37,4.82-15.15,11.85-20.34,21.1-5.2,9.25-7.79,20.22-7.79,32.89s2.6,23.76,7.79,33.27c5.19,9.51,12.04,16.8,20.53,21.86,8.49,5.07,17.55,7.6,27.19,7.6s19.14-2.47,27.76-7.41c8.61-4.95,15.46-12.04,20.53-21.29,5.07-9.25,7.6-20.34,7.6-33.27s-2.54-24.01-7.6-33.27Z"/>
      <path class="cls-1" d="M275.08,53.42c-6.21-5.95-9.32-13.37-9.32-22.24s3.1-16.28,9.32-22.24c6.21-5.95,14-8.93,23.38-8.93s17.17,2.98,23.38,8.93c6.21,5.96,9.31,13.37,9.31,22.24s-3.11,16.29-9.31,22.24c-6.21,5.96-14.01,8.93-23.38,8.93s-17.17-2.98-23.38-8.93ZM324.7,87.45v210.64h-53.23V87.45h53.23Z"/>
      <path class="cls-1" d="M501.11,93.34c11.91,6.21,21.29,14.26,28.14,24.14v-30.04h53.61v212.16c0,19.52-3.93,36.94-11.79,52.28-7.86,15.33-19.65,27.5-35.36,36.5-15.72,8.99-34.73,13.5-57.03,13.5-29.91,0-54.44-6.97-73.57-20.91-19.14-13.94-29.98-32.95-32.51-57.03h52.85c2.79,9.63,8.8,17.3,18.06,23,9.25,5.7,20.47,8.56,33.65,8.56,15.46,0,28-4.63,37.64-13.88,9.63-9.26,14.45-23.26,14.45-42.01v-32.7c-6.84,9.89-16.29,18.13-28.33,24.71-12.04,6.59-25.79,9.89-41.25,9.89-17.74,0-33.97-4.56-48.67-13.69-14.7-9.12-26.3-21.99-34.79-38.59-8.5-16.6-12.74-35.68-12.74-57.22s4.24-40.17,12.74-56.65c8.49-16.47,20.02-29.15,34.6-38.02,14.57-8.87,30.86-13.31,48.86-13.31,15.71,0,29.52,3.11,41.44,9.32ZM521.65,159.5c-5.07-9.25-11.92-16.35-20.53-21.29-8.62-4.94-17.87-7.41-27.76-7.41s-19.01,2.41-27.37,7.22c-8.37,4.82-15.15,11.85-20.34,21.1-5.2,9.25-7.79,20.22-7.79,32.89s2.6,23.76,7.79,33.27c5.19,9.51,12.04,16.8,20.53,21.86,8.49,5.07,17.55,7.6,27.19,7.6s19.14-2.47,27.76-7.41c8.61-4.95,15.46-12.04,20.53-21.29,5.07-9.25,7.6-20.34,7.6-33.27s-2.54-24.01-7.6-33.27Z"/>
      <path class="cls-1" d="M638.56,53.42c-6.21-5.95-9.32-13.37-9.32-22.24s3.1-16.28,9.32-22.24c6.21-5.95,14-8.93,23.38-8.93s17.17,2.98,23.38,8.93c6.21,5.96,9.31,13.37,9.31,22.24s-3.11,16.29-9.31,22.24c-6.21,5.96-14.01,8.93-23.38,8.93s-17.17-2.98-23.38-8.93ZM688.18,87.45v210.64h-53.23V87.45h53.23Z"/>
      <path class="cls-1" d="M918.2,108.17c15.46,15.85,23.19,37.96,23.19,66.35v123.57h-53.23v-116.35c0-16.73-4.18-29.59-12.55-38.59-8.37-8.99-19.77-13.5-34.22-13.5s-26.3,4.5-34.79,13.5c-8.49,9-12.74,21.86-12.74,38.59v116.35h-53.23V87.45h53.23v26.24c7.09-9.12,16.16-16.28,27.19-21.48,11.03-5.19,23.13-7.8,36.31-7.8,25.09,0,45.37,7.93,60.83,23.76Z"/>
      <path class="cls-1" d="M1342.9,298.08l-43.34-65.4-38.4,65.4h-57.03l68.82-105.7-69.58-104.94h60.07l42.97,65.02,38.78-65.02h57.03l-69.2,104.94,69.96,105.7h-60.07Z"/>
      <path class="cls-1" d="M1493.84,131.17v101.89c0,7.1,1.71,12.23,5.13,15.4,3.42,3.17,9.18,4.75,17.3,4.75h24.71v44.86h-33.46c-44.87,0-67.3-21.8-67.3-65.4v-101.52h-25.09v-43.73h25.09v-52.09h53.61v52.09h47.15v43.73h-47.15Z"/>
    </g>
    <g>
      <polygon class="cls-3" points="1132.73 161.27 1045.85 224.36 1043.55 221.29 1130.52 158.2 1132.73 161.27"/>
      <polygon class="cls-3" points="1108.18 86.58 1098.46 138.51 1094.71 137.91 1101.53 85.48 1108.18 86.58"/>
      <polygon class="cls-3" points="1124.29 90.93 1106.56 140.81 1102.98 139.62 1117.9 88.89 1124.29 90.93"/>
      <polygon class="cls-3" points="1139.55 97.84 1114.23 144.3 1110.82 142.6 1133.59 94.85 1139.55 97.84"/>
      <polygon class="cls-3" points="1153.53 107.05 1121.22 148.99 1118.15 146.69 1148.08 103.13 1153.53 107.05"/>
      <polygon class="cls-3" points="1165.9 118.3 1127.45 154.62 1124.8 151.98 1161.12 113.53 1165.9 118.3"/>
      <polygon class="cls-3" points="1176.38 131.35 1132.73 161.27 1130.52 158.2 1172.38 125.97 1176.38 131.35"/>
      <polygon class="cls-3" points="1172.38 256.68 1130.52 224.36 1132.73 221.29 1176.3 251.22 1172.38 256.68"/>
      <polygon class="cls-3" points="1161.12 269.04 1124.8 230.58 1127.45 227.94 1165.9 264.26 1161.12 269.04"/>
      <polygon class="cls-3" points="1148.08 279.52 1118.15 235.87 1121.22 233.65 1153.53 275.52 1148.08 279.52"/>
      <polygon class="cls-3" points="1133.59 287.79 1110.82 240.05 1114.23 238.26 1139.55 284.72 1133.59 287.79"/>
      <polygon class="cls-3" points="1117.9 293.67 1102.98 242.95 1106.56 241.76 1124.29 291.63 1117.9 293.67"/>
      <polygon class="cls-3" points="1101.53 297.09 1094.71 244.65 1098.46 244.06 1108.09 296.07 1101.53 297.09"/>
      <polygon class="cls-3" points="1084.82 297.85 1086.27 244.99 1090.02 244.99 1091.47 297.85 1084.82 297.85"/>
      <polygon class="cls-3" points="1068.19 296.07 1077.91 244.06 1081.66 244.65 1074.76 297.09 1068.19 296.07"/>
      <polygon class="cls-3" points="1051.99 291.63 1069.73 241.76 1073.39 242.95 1058.39 293.67 1051.99 291.63"/>
      <polygon class="cls-3" points="1036.82 284.72 1062.05 238.26 1065.46 240.05 1042.78 287.79 1036.82 284.72"/>
      <polygon class="cls-3" points="1022.83 275.52 1055.06 233.65 1058.13 235.87 1028.21 279.52 1022.83 275.52"/>
      <polygon class="cls-3" points="1010.39 264.26 1048.84 227.94 1051.48 230.58 1015.16 269.04 1010.39 264.26"/>
      <polygon class="cls-3" points="999.99 251.22 1043.55 221.29 1045.85 224.36 1003.91 256.68 999.99 251.22"/>
      <polygon class="cls-3" points="991.71 236.64 1039.46 213.96 1041.17 217.37 994.7 242.69 991.71 236.64"/>
      <polygon class="cls-3" points="985.75 221.04 1036.47 206.12 1037.67 209.7 987.79 227.43 985.75 221.04"/>
      <polygon class="cls-3" points="982.34 204.66 1034.77 197.84 1035.37 201.6 983.45 211.23 982.34 204.66"/>
      <polygon class="cls-3" points="981.57 187.96 1034.43 189.4 1034.43 193.16 981.57 194.61 981.57 187.96"/>
      <polygon class="cls-3" points="983.45 171.33 1035.37 181.05 1034.77 184.8 982.34 177.9 983.45 171.33"/>
      <polygon class="cls-3" points="987.79 155.13 1037.67 172.87 1036.47 176.53 985.75 161.53 987.79 155.13"/>
      <polygon class="cls-3" points="994.7 139.96 1041.17 165.19 1039.46 168.6 991.71 145.93 994.7 139.96"/>
      <polygon class="cls-3" points="1003.91 125.97 1045.85 158.2 1043.55 161.27 999.99 131.35 1003.91 125.97"/>
      <polygon class="cls-3" points="1015.16 113.53 1051.48 151.98 1048.84 154.62 1010.39 118.3 1015.16 113.53"/>
      <polygon class="cls-3" points="1028.21 103.13 1058.13 146.69 1055.06 148.99 1022.83 107.05 1028.21 103.13"/>
      <polygon class="cls-3" points="1042.78 94.85 1065.46 142.6 1062.05 144.3 1036.82 97.84 1042.78 94.85"/>
      <polygon class="cls-3" points="1058.39 88.89 1073.39 139.62 1069.73 140.81 1051.99 90.93 1058.39 88.89"/>
      <polygon class="cls-3" points="1074.76 85.48 1081.66 137.91 1077.91 138.51 1068.19 86.58 1074.76 85.48"/>
      <polygon class="cls-3" points="1091.47 84.71 1090.02 137.57 1086.27 137.57 1084.82 84.71 1091.47 84.71"/>
    </g>
  </g>
  <g>
    <path class="cls-2" d="M679.06,372.91c-2.02,3.56-4.98,6.33-8.87,8.29-3.89,1.97-8.54,2.96-13.94,2.96h-16.48v-47.42h16.48c5.4,0,10.05.97,13.94,2.92,3.89,1.95,6.85,4.69,8.87,8.23,2.03,3.54,3.04,7.7,3.04,12.49s-1.01,8.97-3.04,12.53ZM669.25,372.8c3.16-2.96,4.75-7.09,4.75-12.43s-1.58-9.47-4.75-12.43c-3.17-2.96-7.71-4.43-13.63-4.43h-7.89v33.72h7.89c5.91,0,10.45-1.48,13.63-4.43Z"/>
    <path class="cls-2" d="M691.67,333.17c.93-.85,2.17-1.27,3.71-1.27s2.78.43,3.73,1.27c.96.85,1.43,1.93,1.43,3.22s-.48,2.35-1.43,3.16-2.2,1.21-3.73,1.21-2.77-.4-3.71-1.21-1.4-1.86-1.4-3.16.46-2.37,1.4-3.22ZM699.36,347.15v37.01h-7.96v-37.01h7.96Z"/>
    <path class="cls-2" d="M733.77,350c2.72,2.22,4.39,5.18,4.99,8.9h-7.54c-.33-2.01-1.22-3.64-2.69-4.87-1.47-1.23-3.42-1.85-5.83-1.85-2.01,0-3.55.46-4.65,1.38s-1.64,2.16-1.64,3.73c0,1.16.39,2.1,1.19,2.82s1.78,1.27,2.97,1.68c1.19.4,2.88.85,5.06,1.34,2.89.63,5.22,1.27,7.02,1.95,1.79.67,3.33,1.73,4.61,3.19,1.28,1.45,1.92,3.43,1.92,5.94,0,3.09-1.22,5.6-3.66,7.52-2.45,1.93-5.74,2.89-9.89,2.89-4.8,0-8.68-1.07-11.63-3.22s-4.74-5.15-5.34-9h7.75c.23,2.01,1.16,3.65,2.79,4.91,1.63,1.25,3.77,1.88,6.43,1.88,1.91,0,3.41-.48,4.5-1.44,1.1-.96,1.64-2.18,1.64-3.66,0-1.3-.42-2.33-1.26-3.09-.83-.76-1.88-1.35-3.14-1.78-1.26-.42-2.98-.86-5.17-1.31-2.79-.63-5.06-1.26-6.81-1.88-1.75-.62-3.24-1.64-4.47-3.05-1.23-1.41-1.85-3.33-1.85-5.74,0-3.13,1.22-5.67,3.67-7.62s5.83-2.92,10.16-2.92,8.14,1.11,10.87,3.32Z"/>
    <path class="cls-2" d="M777.88,350.47c3.26,2.53,5.29,5.97,6.08,10.31h-8.45c-.47-2.33-1.6-4.15-3.39-5.47-1.79-1.32-4.04-1.98-6.74-1.98-3.07,0-5.64,1.04-7.68,3.12-2.05,2.09-3.07,5.14-3.07,9.17s1.02,7.1,3.07,9.2c2.05,2.11,4.61,3.16,7.68,3.16,2.7,0,4.95-.67,6.74-2.01,1.79-1.34,2.92-3.18,3.39-5.51h8.45c-.79,4.35-2.82,7.79-6.08,10.35-3.26,2.55-7.38,3.83-12.36,3.83-3.73,0-7.02-.76-9.89-2.28s-5.11-3.72-6.74-6.58-2.45-6.25-2.45-10.14.82-7.21,2.45-10.07,3.88-5.06,6.74-6.58,6.16-2.28,9.89-2.28c4.98,0,9.1,1.27,12.36,3.79Z"/>
    <path class="cls-2" d="M820.56,348.96c2.98,1.52,5.31,3.72,6.99,6.58s2.52,6.22,2.52,10.07-.84,7.28-2.52,10.14-4.01,5.06-6.99,6.58-6.33,2.28-10.06,2.28-7.07-.76-10.03-2.28c-2.96-1.52-5.29-3.73-6.99-6.62-1.7-2.89-2.55-6.26-2.55-10.11s.85-7.21,2.55-10.07c1.7-2.87,4.03-5.06,6.99-6.58,2.96-1.52,6.3-2.28,10.03-2.28s7.08.76,10.06,2.28ZM804.84,354.67c-1.72.9-3.11,2.28-4.16,4.13-1.04,1.86-1.57,4.13-1.57,6.82s.52,5.02,1.57,6.85c1.05,1.84,2.43,3.2,4.16,4.1s3.61,1.34,5.66,1.34,3.94-.45,5.66-1.34c1.72-.89,3.11-2.26,4.16-4.1,1.04-1.84,1.57-4.12,1.57-6.85s-.52-4.96-1.57-6.82c-1.05-1.86-2.44-3.23-4.16-4.13-1.72-.89-3.61-1.34-5.66-1.34s-3.94.45-5.66,1.34Z"/>
    <path class="cls-2" d="M854.79,376.23l10.9-29.08h8.52l-14.67,37.01h-9.64l-14.67-37.01h8.53l11.03,29.08Z"/>
    <path class="cls-2" d="M916.83,367.16h-29.62c.14,3.8,1.23,6.63,3.28,8.46,2.05,1.84,4.59,2.76,7.61,2.76,2.66,0,4.9-.65,6.74-1.95,1.84-1.3,2.97-3.02,3.39-5.17h8.52c-.52,2.6-1.58,4.91-3.21,6.92s-3.75,3.59-6.36,4.74c-2.61,1.14-5.52,1.71-8.73,1.71-3.73,0-7.02-.76-9.89-2.28-2.86-1.52-5.11-3.72-6.74-6.58s-2.45-6.25-2.45-10.14.82-7.21,2.45-10.07,3.88-5.06,6.74-6.58,6.16-2.28,9.89-2.28,7.07.75,9.88,2.25c2.82,1.5,4.99,3.56,6.5,6.18s2.27,5.54,2.27,8.77c0,1.25-.09,2.35-.28,3.29ZM907.78,357.59c-.96-1.64-2.26-2.84-3.91-3.63s-3.46-1.18-5.41-1.18c-3.12,0-5.73.92-7.82,2.76-2.1,1.84-3.24,4.54-3.43,8.13h21.87c.09-2.42-.34-4.45-1.29-6.08Z"/>
    <path class="cls-2" d="M939.6,348.65c2.42-1.41,5.21-2.11,8.38-2.11v8.33h-2.38c-3.49,0-6.3.82-8.42,2.45-2.12,1.64-3.18,4.33-3.18,8.09v18.74h-7.96v-37.01h7.96v7.25c1.31-2.42,3.17-4.33,5.59-5.74Z"/>
    <path class="cls-2" d="M979.07,375.69v8.46h-9.01v-8.46h9.01Z"/>
    <path class="cls-2" d="M1042.01,340.7c4,2.95,6.7,6.96,8.1,12.02h-8.45c-1.16-2.87-3.02-5.14-5.55-6.82-2.54-1.68-5.65-2.52-9.33-2.52-2.93,0-5.55.69-7.86,2.08-2.31,1.39-4.12,3.37-5.45,5.95-1.33,2.58-1.99,5.59-1.99,9.03s.67,6.4,1.99,8.97c1.33,2.58,3.14,4.56,5.45,5.95s4.92,2.08,7.86,2.08c3.68,0,6.79-.84,9.33-2.52,2.53-1.68,4.39-3.93,5.55-6.75h8.45c-1.4,5.06-4.1,9.06-8.1,11.99-4.01,2.93-9.04,4.4-15.09,4.4-4.66,0-8.78-1.02-12.36-3.05-3.58-2.04-6.36-4.88-8.31-8.53-1.95-3.65-2.93-7.82-2.93-12.53s.98-8.87,2.93-12.52c1.95-3.65,4.73-6.5,8.31-8.56,3.59-2.06,7.71-3.09,12.36-3.09,6.05,0,11.09,1.48,15.09,4.44Z"/>
    <path class="cls-2" d="M1087,348.96c2.98,1.52,5.31,3.72,6.99,6.58s2.52,6.22,2.52,10.07-.84,7.28-2.52,10.14-4.01,5.06-6.99,6.58c-2.98,1.52-6.33,2.28-10.06,2.28s-7.07-.76-10.03-2.28c-2.96-1.52-5.29-3.73-6.99-6.62-1.7-2.89-2.55-6.26-2.55-10.11s.85-7.21,2.55-10.07c1.7-2.87,4.03-5.06,6.99-6.58,2.96-1.52,6.3-2.28,10.03-2.28s7.08.76,10.06,2.28ZM1071.28,354.67c-1.72.9-3.11,2.28-4.16,4.13-1.04,1.86-1.57,4.13-1.57,6.82s.52,5.02,1.57,6.85c1.05,1.84,2.43,3.2,4.16,4.1s3.61,1.34,5.66,1.34,3.94-.45,5.66-1.34c1.72-.89,3.11-2.26,4.16-4.1,1.04-1.84,1.57-4.12,1.57-6.85s-.52-4.96-1.57-6.82c-1.05-1.86-2.44-3.23-4.16-4.13-1.72-.89-3.61-1.34-5.66-1.34s-3.94.45-5.66,1.34Z"/>
    <path class="cls-2" d="M1137.71,350.71c2.7,2.77,4.05,6.74,4.05,11.89v21.56h-7.97v-20.76c0-3.31-.89-5.88-2.66-7.69-1.77-1.81-4.19-2.72-7.26-2.72s-5.71.97-7.61,2.92c-1.91,1.94-2.87,4.8-2.87,8.56v19.68h-7.96v-37.01h7.96v8.13c1.03-2.78,2.75-4.93,5.17-6.45,2.42-1.52,5.21-2.28,8.38-2.28,4.47,0,8.05,1.39,10.76,4.17Z"/>
    <path class="cls-2" d="M1184.59,350.71c2.7,2.77,4.05,6.74,4.05,11.89v21.56h-7.97v-20.76c0-3.31-.89-5.88-2.66-7.69-1.77-1.81-4.19-2.72-7.26-2.72s-5.71.97-7.61,2.92c-1.91,1.94-2.87,4.8-2.87,8.56v19.68h-7.96v-37.01h7.96v8.13c1.03-2.78,2.75-4.93,5.17-6.45,2.42-1.52,5.21-2.28,8.38-2.28,4.47,0,8.05,1.39,10.76,4.17Z"/>
    <path class="cls-2" d="M1234.68,367.16h-29.62c.14,3.8,1.23,6.63,3.28,8.46,2.05,1.84,4.59,2.76,7.61,2.76,2.66,0,4.9-.65,6.74-1.95,1.84-1.3,2.97-3.02,3.39-5.17h8.52c-.52,2.6-1.58,4.91-3.21,6.92s-3.75,3.59-6.36,4.74c-2.61,1.14-5.52,1.71-8.73,1.71-3.73,0-7.02-.76-9.89-2.28s-5.11-3.72-6.74-6.58c-1.63-2.87-2.45-6.25-2.45-10.14s.82-7.21,2.45-10.07c1.63-2.87,3.88-5.06,6.74-6.58s6.16-2.28,9.89-2.28,7.07.75,9.88,2.25c2.82,1.5,4.99,3.56,6.5,6.18s2.27,5.54,2.27,8.77c0,1.25-.09,2.35-.28,3.29ZM1225.63,357.59c-.96-1.64-2.26-2.84-3.91-3.63s-3.46-1.18-5.41-1.18c-3.12,0-5.73.92-7.82,2.76-2.1,1.84-3.24,4.54-3.43,8.13h21.87c.09-2.42-.34-4.45-1.29-6.08Z"/>
    <path class="cls-2" d="M1273.38,350.47c3.26,2.53,5.29,5.97,6.08,10.31h-8.45c-.47-2.33-1.6-4.15-3.39-5.47-1.79-1.32-4.04-1.98-6.74-1.98-3.07,0-5.64,1.04-7.68,3.12-2.05,2.09-3.07,5.14-3.07,9.17s1.02,7.1,3.07,9.2c2.05,2.11,4.61,3.16,7.68,3.16,2.7,0,4.95-.67,6.74-2.01,1.79-1.34,2.92-3.18,3.39-5.51h8.45c-.79,4.35-2.82,7.79-6.08,10.35-3.26,2.55-7.38,3.83-12.36,3.83-3.73,0-7.02-.76-9.89-2.28-2.86-1.52-5.11-3.72-6.74-6.58s-2.45-6.25-2.45-10.14.82-7.21,2.45-10.07,3.88-5.06,6.74-6.58,6.16-2.28,9.89-2.28c4.98,0,9.1,1.27,12.36,3.79Z"/>
    <path class="cls-2" d="M1307.75,377.51v6.65h-4.89c-4.1,0-7.21-.95-9.32-2.85-2.12-1.9-3.18-5.07-3.18-9.51v-18.14h-5.52v-6.51h5.52v-9.2h8.04v9.2h9.29v6.51h-9.29v18.27c0,2.1.41,3.56,1.22,4.37s2.24,1.21,4.3,1.21h3.84Z"/>
    <path class="cls-2" d="M1340.37,375.69v8.46h-9.01v-8.46h9.01Z"/>
    <path class="cls-2" d="M1403.45,340.5c3.91,2.77,6.5,6.56,7.75,11.35h-8.38c-1.07-2.55-2.83-4.59-5.27-6.11-2.45-1.52-5.35-2.29-8.7-2.29-3.07,0-5.83.7-8.27,2.09-2.45,1.39-4.36,3.36-5.73,5.91-1.37,2.55-2.06,5.56-2.06,9,0,3.63.7,6.74,2.1,9.34,1.4,2.6,3.36,4.58,5.9,5.95,2.54,1.36,5.49,2.05,8.84,2.05,4.1,0,7.62-1.22,10.55-3.66s4.7-5.79,5.31-10.04h-18.1v-5.65h24.8v7.32c-.56,3.49-1.85,6.66-3.87,9.5-2.03,2.85-4.7,5.12-8.04,6.82-3.33,1.7-7.14,2.55-11.42,2.55-4.79,0-9.03-1.03-12.71-3.09-3.68-2.06-6.52-4.92-8.52-8.56-2.01-3.65-3-7.82-3-12.53s1-8.87,3-12.52c2-3.65,4.83-6.49,8.49-8.53,3.66-2.04,7.89-3.05,12.68-3.05,5.87,0,10.76,1.39,14.67,4.17Z"/>
    <path class="cls-2" d="M1435.03,348.65c2.42-1.41,5.21-2.11,8.38-2.11v8.33h-2.38c-3.49,0-6.3.82-8.42,2.45-2.12,1.64-3.18,4.33-3.18,8.09v18.74h-7.96v-37.01h7.96v7.25c1.31-2.42,3.17-4.33,5.59-5.74Z"/>
    <path class="cls-2" d="M1478.27,348.96c2.98,1.52,5.31,3.72,6.99,6.58s2.52,6.22,2.52,10.07-.84,7.28-2.52,10.14-4.01,5.06-6.99,6.58-6.33,2.28-10.06,2.28-7.07-.76-10.03-2.28c-2.96-1.52-5.29-3.73-6.99-6.62-1.7-2.89-2.55-6.26-2.55-10.11s.85-7.21,2.55-10.07c1.7-2.87,4.03-5.06,6.99-6.58,2.96-1.52,6.3-2.28,10.03-2.28s7.08.76,10.06,2.28ZM1462.55,354.67c-1.72.9-3.11,2.28-4.16,4.13-1.04,1.86-1.57,4.13-1.57,6.82s.52,5.02,1.57,6.85c1.05,1.84,2.43,3.2,4.16,4.1,1.72.89,3.61,1.34,5.66,1.34s3.94-.45,5.66-1.34c1.72-.89,3.11-2.26,4.16-4.1,1.04-1.84,1.57-4.12,1.57-6.85s-.52-4.96-1.57-6.82c-1.05-1.86-2.44-3.23-4.16-4.13-1.72-.89-3.61-1.34-5.66-1.34s-3.94.45-5.66,1.34Z"/>
    <path class="cls-2" d="M1550.64,347.15l-10.69,37.01h-8.8l-9.5-28.61-9.64,28.61h-8.73l-10.69-37.01h8.04l7.33,29.96,9.64-29.96h8.38l9.78,29.96,7.34-29.96h7.54Z"/>
  </g>
</svg>